Coordinates
version=1
nRows=13
nColumns=34
inDegrees=yes

Units are S.I. units (second, meters, Newtons, ...)
If the header above contains a line with 'inDegrees', this indicates whether rotational values are in degrees (yes) or radians (no).

endheader
time	pelvis_tilt	pelvis_list	pelvis_rotation	pelvis_tx	pelvis_ty	pelvis_tz	hip_flexion_r	hip_adduction_r	hip_rotation_r	knee_angle_r	ankle_angle_r	subtalar_angle_r	mtp_angle_r	hip_flexion_l	hip_adduction_l	hip_rotation_l	knee_angle_l	ankle_angle_l	subtalar_angle_l	mtp_angle_l	lumbar_extension	lumbar_bending	lumbar_rotation	arm_flex_r	arm_add_r	arm_rot_r	elbow_flex_r	pro_sup_r	arm_flex_l	arm_add_l	arm_rot_l	elbow_flex_l	pro_sup_l
      2.70000000	     -3.60458425	     -1.66520126	      4.22437081	     -0.63004664	      0.74889332	     -0.18747675	     48.23854827	     -9.66150289	     -8.10930290	     85.86926624	     38.55773904	    -11.12513991	      0.00000000	     51.80922898	    -11.58718570	     -7.21852116	     85.42940627	     38.33988227	      6.70628056	      0.00000000	    -51.19849369	      4.71506412	     -2.76767020	     19.90715737	     -8.84076747	     -6.10061533	     36.14680483	     85.52697669	     11.85074817	    -14.91304250	      4.26483295	     36.98966733	     89.49609018
      2.71666670	     -2.92897709	     -1.57069076	      4.26326089	     -0.62995339	      0.74899887	     -0.18722537	     47.76286586	     -9.33344485	     -7.68458888	     86.51917464	     38.79362027	    -11.85237095	      0.00000000	     51.59408805	    -11.28551088	     -6.82918740	     86.05163950	     38.82884058	      6.55818038	      0.00000000	    -52.52034817	      4.55518958	     -2.50629118	     20.20038534	     -9.04388799	     -5.85012442	     36.20660160	     85.76927344	     12.35689922	    -15.09297828	      4.13480735	     37.11384712	     89.89073619
      2.73333330	     -2.78909397	     -1.33083767	      4.42744206	     -0.63105707	      0.74374159	     -0.18700799	     48.21050091	     -9.54720780	     -7.28369429	     87.32906096	     38.68104953	    -12.23878712	      0.00000000	     51.86068409	    -10.84561223	     -6.52777666	     86.76837109	     39.28916296	      6.57948556	      0.00000000	    -53.09865969	      4.27469611	     -2.41765901	     20.17395244	     -9.24615322	     -5.65215845	     36.27058932	     85.92902834	     12.72859850	    -15.26132778	      4.04282330	     37.18827094	     90.11065219
      2.75000000	     -2.96513903	     -1.24438968	      4.22628391	     -0.65042364	      0.73799746	     -0.19318867	     49.80384330	     -9.63189178	     -6.67362869	     88.26879964	     38.83984628	    -12.59766471	      0.00000000	     53.37412583	    -10.21633935	     -6.24882082	     87.68636280	     39.44956663	      5.45463082	      0.00000000	    -53.37840178	      4.24481855	     -2.31972099	     20.77085874	     -9.70225923	     -5.31775592	     36.70086567	     86.13647677	     13.39218787	    -15.33414684	      4.06231644	     37.37864827	     90.35917682
      2.76666670	     -2.78994983	     -0.92553549	      4.20966146	     -0.62951595	      0.74876230	     -0.18664158	     48.99116529	     -9.57479756	     -6.26323368	     87.67438382	     38.94919342	    -12.30740761	      0.00000000	     52.52920786	     -9.97411494	     -6.46757038	     87.22863252	     38.96064224	      5.61560163	      0.00000000	    -53.82531329	      3.83622271	     -2.18056507	     20.90083006	     -9.89149598	     -4.91061473	     36.36076492	     86.43136827	     14.04449560	    -15.28380970	      4.03932529	     36.87004742	     90.67358522
      2.78333330	     -2.90375997	     -0.68438591	      4.32059453	     -0.62891240	      0.74861655	     -0.18631253	     48.69715750	     -9.75322136	     -6.18380578	     87.16420355	     38.50152874	    -12.76619221	      0.00000000	     52.05385834	     -9.75368119	     -6.50355324	     86.63493079	     38.99944051	      5.76680486	      0.00000000	    -53.87073943	      3.60738186	     -2.08114704	     20.23776890	     -9.98736267	     -4.83717947	     35.92552250	     86.60669214	     14.13487879	    -15.16053937	      3.93507602	     36.69757959	     90.87080699
      2.80000000	     -2.69537775	     -0.64288743	      4.26680876	     -0.63046685	      0.74928091	     -0.18631770	     48.35344325	     -9.66156130	     -6.07102230	     86.70385821	     38.12502569	    -12.71691886	      0.00000000	     51.38798456	     -9.77554250	     -6.52970864	     86.08650277	     38.76834478	      5.66203974	      0.00000000	    -53.66169298	      3.43990600	     -1.93186614	     19.76602195	    -10.05541671	     -4.82058668	     35.97964615	     86.81719272	     14.26367497	    -15.16015270	      3.63707844	     36.92252152	     91.08622316
      2.81666670	     -2.70941991	     -0.49652680	      4.22417735	     -0.63001932	      0.74901822	     -0.18594703	     48.23619858	     -9.64020600	     -5.94923701	     86.34358224	     38.49553216	    -12.20217345	      0.00000000	     51.05059334	     -9.75939306	     -6.69411392	     85.76494064	     38.86806435	      5.74235122	      0.00000000	    -52.98292562	      3.30837616	     -1.89182008	     18.91878539	    -10.03489373	     -5.05078450	     36.48652479	     87.28543809	     13.98168242	    -15.16410460	      3.01596446	     38.59566637	     91.66701629
      2.83333330	     -2.55533893	     -0.46834318	      4.36023904	     -0.62974811	      0.76068888	     -0.18638169	     47.27126362	     -9.56627074	     -6.09088008	     85.11507250	     37.72907636	    -12.80832264	      0.00000000	     50.16169663	     -9.62148157	     -6.70071188	     84.72879666	     38.23357438	      5.56316367	      0.00000000	    -52.65317153	      3.34464956	     -1.92616947	     18.36276384	     -9.98904116	     -5.29130055	     36.76537738	     87.65471565	     13.88676436	    -15.17071398	      2.49221194	     39.83597787	     92.13395990
      2.85000000	     -3.51307195	     -0.15938686	      3.82726566	     -0.64891209	      0.75979522	     -0.19215500	     48.55582542	     -9.65143066	     -5.45175855	     83.85610559	     36.80098352	    -13.06041560	      0.00000000	     50.90588872	     -9.01952117	     -7.37434939	     83.24821285	     37.57257408	      4.96710104	      0.00000000	    -51.28929685	      2.99638914	     -2.19017588	     18.33480454	    -10.18730841	     -5.28952178	     37.31128711	     88.02732033	     13.97943777	    -15.08314589	      2.13680180	     41.04098095	     92.55693845
      2.86666670	     -4.51114726	      0.10059733	      3.32863643	     -0.64788531	      0.76481030	     -0.19204319	     49.59594396	     -9.65184417	     -4.84428359	     82.42190637	     35.58231805	    -13.03510265	      0.00000000	     51.30337852	     -8.55252910	     -7.99232030	     81.47268136	     36.54178636	      4.33979291	      0.00000000	    -49.83169187	      2.71552776	     -2.46453135	     18.25228590	    -10.27833803	     -5.27592291	     37.84894730	     88.43023876	     13.88292324	    -14.95513052	      1.76934090	     42.02743421	     92.99810610
      2.88333330	     -5.09894731	     -0.09589122	      3.12033089	     -0.62415423	      0.77444043	     -0.18513816	     48.21057713	     -9.17500766	     -5.18649215	     79.65920058	     34.64320751	    -12.97768044	      0.00000000	     50.49790250	     -9.02031912	     -8.29730284	     79.54262208	     34.75093396	      4.11225422	      0.00000000	    -48.59242939	      3.00302135	     -2.61049676	     17.92126146	    -10.00956784	     -5.45974660	     37.68236097	     88.89846322	     13.46444708	    -14.82133712	      1.45893175	     42.05138242	     93.52838168
      2.90000000	     -6.24821420	     -0.02463937	      2.09295707	     -0.64381453	      0.78061806	     -0.19159716	     48.82308551	     -8.64007852	     -4.75151848	     77.08908863	     33.86588623	    -12.86786906	      0.00000000	     50.54774881	     -8.95503506	     -8.85160382	     77.31876729	     34.11662060	      3.99536914	      0.00000000	    -46.95019555	      2.53287660	     -2.43827180	     17.77311263	    -10.17770996	     -5.33175892	     37.90416629	     89.38118717	     12.94812238	    -14.52199338	      1.05474770	     42.43437997	     93.99734091
